<svg xmlns="http://www.w3.org/2000/svg" viewBox="0 0 36 36">
  <rect width="36" height="36" fill="#1a1918"/>
  <g transform="translate(18,18) rotate(45)">
    <rect x="-13" y="-13" width="5" height="5" rx="0.5" fill="#c9877b"/>
    <rect x="-7"  y="-13" width="5" height="5" rx="0.5" fill="#c9877b"/>
    <rect x="-1"  y="-13" width="5" height="5" rx="0.5" fill="#c9877b"/>
    <rect x="5"   y="-13" width="5" height="5" rx="0.5" fill="#c9877b"/>
    <rect x="-13" y="-7"  width="5" height="5" rx="0.5" fill="#c9877b"/>
    <rect x="-7"  y="-7"  width="5" height="5" rx="0.5" fill="#fff"/>
    <rect x="-1"  y="-7"  width="5" height="5" rx="0.5" fill="#fff"/>
    <rect x="5"   y="-7"  width="5" height="5" rx="0.5" fill="#c9877b"/>
    <rect x="-13" y="-1"  width="5" height="5" rx="0.5" fill="#c9877b"/>
    <rect x="-7"  y="-1"  width="5" height="5" rx="0.5" fill="#fff"/>
    <rect x="-1"  y="-1"  width="5" height="5" rx="0.5" fill="#fff"/>
    <rect x="5"   y="-1"  width="5" height="5" rx="0.5" fill="#c9877b"/>
    <rect x="-13" y="5"   width="5" height="5" rx="0.5" fill="#c9877b"/>
    <rect x="-7"  y="5"   width="5" height="5" rx="0.5" fill="#c9877b"/>
    <rect x="-1"  y="5"   width="5" height="5" rx="0.5" fill="#c9877b"/>
    <rect x="5"   y="5"   width="5" height="5" rx="0.5" fill="#c9877b"/>
  </g>
</svg>
